<svg xmlns="http://www.w3.org/2000/svg" version="1.1" xmlns:xlink="http://www.w3.org/1999/xlink" xmlns:svgjs="http://svgjs.dev/svgjs" width="1440" height="560" preserveAspectRatio="none" viewBox="0 0 1440 560"><g mask="url(&quot;#SvgjsMask1016&quot;)" fill="none"><rect width="1440" height="560" x="0" y="0" fill="#0e2a47"></rect><path d="M1188 376L1187 101" stroke-width="6" stroke="url(&quot;#SvgjsLinearGradient1017&quot;)" stroke-linecap="round" class="Up"></path><path d="M1249 82L1248 -191" stroke-width="10" stroke="url(&quot;#SvgjsLinearGradient1018&quot;)" stroke-linecap="round" class="Down"></path><path d="M852 255L851 420" stroke-width="6" stroke="url(&quot;#SvgjsLinearGradient1017&quot;)" stroke-linecap="round" class="Up"></path><path d="M594 98L593 475" stroke-width="10" stroke="url(&quot;#SvgjsLinearGradient1018&quot;)" stroke-linecap="round" class="Down"></path><path d="M1416 1L1415 314" stroke-width="8" stroke="url(&quot;#SvgjsLinearGradient1017&quot;)" stroke-linecap="round" class="Up"></path><path d="M1263 503L1262 658" stroke-width="6" stroke="url(&quot;#SvgjsLinearGradient1018&quot;)" stroke-linecap="round" class="Down"></path><path d="M205 377L204 -24" stroke-width="8" stroke="url(&quot;#SvgjsLinearGradient1018&quot;)" stroke-linecap="round" class="Down"></path><path d="M1015 36L1014 339" stroke-width="8" stroke="url(&quot;#SvgjsLinearGradient1018&quot;)" stroke-linecap="round" class="Down"></path><path d="M584 545L583 149" stroke-width="8" stroke="url(&quot;#SvgjsLinearGradient1018&quot;)" stroke-linecap="round" class="Down"></path><path d="M462 180L461 532" stroke-width="6" stroke="url(&quot;#SvgjsLinearGradient1018&quot;)" stroke-linecap="round" class="Down"></path><path d="M365 207L364 585" stroke-width="6" stroke="url(&quot;#SvgjsLinearGradient1017&quot;)" stroke-linecap="round" class="Up"></path><path d="M837 453L836 650" stroke-width="6" stroke="url(&quot;#SvgjsLinearGradient1018&quot;)" stroke-linecap="round" class="Down"></path><path d="M287 366L286 739" stroke-width="10" stroke="url(&quot;#SvgjsLinearGradient1018&quot;)" stroke-linecap="round" class="Down"></path><path d="M253 98L252 -134" stroke-width="10" stroke="url(&quot;#SvgjsLinearGradient1018&quot;)" stroke-linecap="round" class="Down"></path><path d="M442 544L441 906" stroke-width="10" stroke="url(&quot;#SvgjsLinearGradient1018&quot;)" stroke-linecap="round" class="Down"></path><path d="M722 314L721 -98" stroke-width="8" stroke="url(&quot;#SvgjsLinearGradient1017&quot;)" stroke-linecap="round" class="Up"></path><path d="M112 459L111 748" stroke-width="8" stroke="url(&quot;#SvgjsLinearGradient1017&quot;)" stroke-linecap="round" class="Up"></path><path d="M1065 282L1064 -64" stroke-width="10" stroke="url(&quot;#SvgjsLinearGradient1017&quot;)" stroke-linecap="round" class="Up"></path><path d="M1204 251L1203 395" stroke-width="6" stroke="url(&quot;#SvgjsLinearGradient1018&quot;)" stroke-linecap="round" class="Down"></path><path d="M291 187L290 464" stroke-width="10" stroke="url(&quot;#SvgjsLinearGradient1018&quot;)" stroke-linecap="round" class="Down"></path><path d="M415 109L414 -208" stroke-width="8" stroke="url(&quot;#SvgjsLinearGradient1017&quot;)" stroke-linecap="round" class="Up"></path><path d="M630 178L629 -162" stroke-width="6" stroke="url(&quot;#SvgjsLinearGradient1018&quot;)" stroke-linecap="round" class="Down"></path><path d="M334 132L333 432" stroke-width="8" stroke="url(&quot;#SvgjsLinearGradient1018&quot;)" stroke-linecap="round" class="Down"></path><path d="M46 469L45 275" stroke-width="8" stroke="url(&quot;#SvgjsLinearGradient1017&quot;)" stroke-linecap="round" class="Up"></path><path d="M1280 185L1279 561" stroke-width="6" stroke="url(&quot;#SvgjsLinearGradient1017&quot;)" stroke-linecap="round" class="Up"></path><path d="M263 269L262 486" stroke-width="10" stroke="url(&quot;#SvgjsLinearGradient1017&quot;)" stroke-linecap="round" class="Up"></path><path d="M1216 3L1215 -254" stroke-width="8" stroke="url(&quot;#SvgjsLinearGradient1017&quot;)" stroke-linecap="round" class="Up"></path><path d="M878 26L877 210" stroke-width="10" stroke="url(&quot;#SvgjsLinearGradient1017&quot;)" stroke-linecap="round" class="Up"></path><path d="M1340 228L1339 481" stroke-width="6" stroke="url(&quot;#SvgjsLinearGradient1018&quot;)" stroke-linecap="round" class="Down"></path><path d="M295 167L294 -65" stroke-width="6" stroke="url(&quot;#SvgjsLinearGradient1017&quot;)" stroke-linecap="round" class="Up"></path><path d="M1439 171L1438 440" stroke-width="10" stroke="url(&quot;#SvgjsLinearGradient1017&quot;)" stroke-linecap="round" class="Up"></path><path d="M80 152L79 522" stroke-width="8" stroke="url(&quot;#SvgjsLinearGradient1018&quot;)" stroke-linecap="round" class="Down"></path><path d="M1156 310L1155 -93" stroke-width="10" stroke="url(&quot;#SvgjsLinearGradient1018&quot;)" stroke-linecap="round" class="Down"></path><path d="M435 81L434 -315" stroke-width="6" stroke="url(&quot;#SvgjsLinearGradient1018&quot;)" stroke-linecap="round" class="Down"></path><path d="M1364 309L1363 116" stroke-width="6" stroke="url(&quot;#SvgjsLinearGradient1017&quot;)" stroke-linecap="round" class="Up"></path><path d="M860 141L859 472" stroke-width="10" stroke="url(&quot;#SvgjsLinearGradient1018&quot;)" stroke-linecap="round" class="Down"></path></g><defs><mask id="SvgjsMask1016"><rect width="1440" height="560" fill="#ffffff"></rect></mask><linearGradient x1="0%" y1="100%" x2="0%" y2="0%" id="SvgjsLinearGradient1017"><stop stop-color="rgba(13, 148, 185, 0)" offset="0"></stop><stop stop-color="rgba(13, 148, 185, 1)" offset="1"></stop></linearGradient><linearGradient x1="0%" y1="0%" x2="0%" y2="100%" id="SvgjsLinearGradient1018"><stop stop-color="rgba(13, 148, 185, 0)" offset="0"></stop><stop stop-color="rgba(13, 148, 185, 1)" offset="1"></stop></linearGradient></defs></svg>